<svg xmlns="http://www.w3.org/2000/svg" width="14" height="14" viewBox="0 0 14 14" fill="none"> <g clip-path="url(#clip0_26_530)"> <path d="M3.56757 0.313491C3.75452 0.312174 3.91228 0.357375 4.04087 0.449093C4.14663 0.532913 4.20828 0.641307 4.22584 0.774276C4.25524 0.956396 4.26007 1.21158 4.24032 1.53984C4.23988 1.57538 4.25721 1.59316 4.29232 1.59316C4.89047 1.59798 5.49322 1.5993 6.10058 1.59711C6.11857 1.59711 6.13415 1.59096 6.14731 1.57868C6.38912 1.3496 6.6318 1.22958 6.87535 1.21861C7.19352 1.20456 7.46187 1.32108 7.68041 1.56814C7.69489 1.58482 7.71311 1.59316 7.73505 1.59316C8.38015 1.59974 9.02481 1.59974 9.66903 1.59316C9.69097 1.59316 9.70107 1.58219 9.69931 1.56024C9.6721 1.24823 9.68527 0.969781 9.73881 0.724906C9.79235 0.479154 9.94594 0.347501 10.1996 0.329947C10.6419 0.287819 10.9932 0.291329 11.2535 0.34048C11.275 0.344429 11.2958 0.350793 11.316 0.359569C11.4836 0.431101 11.5914 0.553319 11.6392 0.726223C11.6449 0.747287 11.648 0.768791 11.6484 0.790733C11.6686 1.58767 11.6739 2.39953 11.6642 3.22631C11.6612 3.47865 11.5811 3.6577 11.424 3.76346C11.406 3.77575 11.3864 3.78518 11.3654 3.79176C11.2052 3.84486 11.0141 3.87032 10.792 3.86812C10.53 3.86549 10.3064 3.8543 10.1213 3.83455C10.0993 3.83236 10.0783 3.82731 10.0581 3.81941C9.86761 3.74612 9.75702 3.60196 9.7263 3.38693C9.69734 3.18111 9.69075 2.93097 9.70655 2.63651C9.70743 2.60184 9.69075 2.5845 9.65652 2.5845C9.04302 2.58231 8.45936 2.58341 7.90554 2.5878C7.84103 2.58824 7.78924 2.61413 7.75019 2.66547C7.59352 2.87041 7.47262 2.98912 7.38748 3.02159C7.36686 3.02905 7.35655 3.04375 7.35655 3.0657C7.35172 4.49018 7.3504 5.92608 7.3526 7.37338C7.3526 7.4436 7.38485 7.49231 7.44936 7.51952C7.66396 7.6007 7.81141 7.77273 7.89172 8.0356C8.02732 8.48058 8.11421 8.95146 8.15239 9.44823C8.15634 9.48905 8.13878 9.50353 8.09973 9.49168C7.65781 9.3451 7.21129 9.2863 6.76016 9.31526C6.3867 9.33896 6.05757 9.38833 5.77276 9.46337C5.73502 9.47171 5.71769 9.45657 5.72076 9.41795C5.75016 8.8931 5.84429 8.40905 6.00315 7.96582C6.07468 7.76615 6.18461 7.62769 6.33294 7.55046C6.35181 7.53948 6.36125 7.52303 6.36125 7.50109C6.37617 6.02701 6.37749 4.54175 6.3652 3.04529C6.36476 2.97946 6.3347 2.93273 6.27502 2.90508C6.23596 2.88314 6.20524 2.85286 6.18286 2.81424C6.13239 2.72823 6.08895 2.66569 6.05252 2.62663C6.02619 2.59899 5.99394 2.58494 5.95576 2.5845C5.36815 2.58231 4.82376 2.58363 4.3226 2.58845C4.25985 2.58889 4.23066 2.62027 4.23505 2.68259C4.2763 3.03147 4.26095 3.31013 4.18897 3.51858C4.11042 3.74546 3.92523 3.86198 3.6334 3.86812C3.40345 3.86724 3.17305 3.86724 2.94222 3.86812C2.71534 3.869 2.54112 3.80186 2.41956 3.66669C2.3116 3.53592 2.2664 3.38364 2.28396 3.20986C2.28527 2.43661 2.28527 1.67412 2.28396 0.922386C2.28396 0.900444 2.28505 0.878502 2.28725 0.856559C2.31577 0.595448 2.44282 0.424957 2.66838 0.345088C2.68901 0.337627 2.71029 0.333019 2.73223 0.331264C2.96087 0.321609 3.23932 0.315685 3.56757 0.313491Z" fill="url(#paint0_linear_26_530)"/> <path d="M1.54382 9.08478C1.89489 9.08873 2.24597 9.08873 2.59704 9.08478C2.74274 9.08303 2.87856 9.12274 3.00451 9.20393C3.23358 9.36806 3.35558 9.59165 3.3705 9.8747C3.38762 10.1986 3.41 10.5209 3.43764 10.8417C3.4394 10.8636 3.45125 10.8746 3.47319 10.8746C3.94319 10.8794 4.4246 10.8807 4.91742 10.8786C4.95341 10.8786 4.9782 10.8619 4.99181 10.8285C5.10108 10.5832 5.29022 10.4134 5.55923 10.319C5.96955 10.1615 6.40839 10.0737 6.87576 10.0557C7.13248 10.0461 7.40259 10.0777 7.68609 10.1505C8.01083 10.2185 8.3009 10.3412 8.55631 10.5185C8.5743 10.5308 8.59361 10.5402 8.61424 10.5468C8.74809 10.5885 8.83213 10.6877 8.86635 10.8443C8.87162 10.8671 8.8861 10.8786 8.9098 10.8786C9.39692 10.8786 9.87635 10.8786 10.3481 10.8786C10.3986 10.8786 10.4253 10.8533 10.4284 10.8029C10.4552 10.508 10.4723 10.226 10.4798 9.95698C10.4885 9.64189 10.5941 9.40185 10.7964 9.23684C10.9495 9.11835 11.1238 9.06767 11.3191 9.08478C11.6377 9.09883 11.9558 9.09883 12.2735 9.08478C12.4381 9.07732 12.5875 9.11441 12.7218 9.19603C12.9373 9.33119 13.0566 9.5245 13.0799 9.77596C13.1242 10.2574 13.1567 10.7291 13.1773 11.1912C13.1782 11.2132 13.1782 11.2351 13.1773 11.2571C13.155 11.8596 13.1179 12.4575 13.0661 13.0508C13.0643 13.0728 13.0606 13.0943 13.0549 13.1153C12.972 13.4217 12.7758 13.6051 12.4664 13.6656C12.4449 13.67 12.4232 13.6722 12.4012 13.6722C12.1621 13.6766 11.8727 13.6834 11.533 13.6926C11.2653 13.7001 11.0307 13.6494 10.8293 13.5406C10.6445 13.4252 10.539 13.2564 10.5127 13.0344C10.4701 12.7048 10.4475 12.343 10.4449 11.9489C10.4431 11.8967 10.4161 11.8701 10.3639 11.8692C9.89215 11.8631 9.41644 11.8633 8.93679 11.8699C8.91485 11.8699 8.90322 11.8809 8.9019 11.9028C8.88742 12.1306 8.78122 12.3199 8.5833 12.4709C8.37924 12.6245 8.13787 12.7232 7.85921 12.7671C7.28257 12.8531 6.70242 12.8599 6.11876 12.7875C5.82298 12.7511 5.56099 12.6565 5.33279 12.5038C5.11688 12.3542 4.98939 12.1473 4.95034 11.8831C4.94814 11.8686 4.93958 11.8613 4.92466 11.8613C4.43623 11.8666 3.94648 11.8681 3.45542 11.866C3.44313 11.866 3.43677 11.8719 3.43633 11.8837C3.41526 12.2782 3.3874 12.6605 3.35273 13.0304C3.35097 13.0524 3.34724 13.0739 3.34154 13.0949C3.26167 13.4061 3.06682 13.5961 2.757 13.665C2.73549 13.6698 2.71377 13.6729 2.69183 13.6742C2.38508 13.6997 2.01886 13.7058 1.59319 13.6926C1.27064 13.6825 1.03783 13.5562 0.894767 13.3135C0.831134 13.2073 0.795149 13.0925 0.786811 12.9692C0.767502 12.5738 0.74556 12.1786 0.720985 11.7837C0.700798 11.4602 0.695312 11.1695 0.704528 10.9115C0.731736 10.4875 0.763553 10.0761 0.799977 9.67722C0.802171 9.65528 0.807437 9.63421 0.815775 9.61403C0.883357 9.44902 0.987582 9.31518 1.12845 9.21249C1.24606 9.12647 1.38452 9.08391 1.54382 9.08478Z" fill="url(#paint1_linear_26_530)"/> </g> <defs> <linearGradient id="paint0_linear_26_530" x1="0.0635107" y1="5.79218" x2="14.0161" y2="5.79218" gradientUnits="userSpaceOnUse"> <stop stop-color="#E2AC6B"/> <stop offset="1" stop-color="#E0D2B4"/> </linearGradient> <linearGradient id="paint1_linear_26_530" x1="-2.24595" y1="11.8394" x2="16.2974" y2="11.8394" gradientUnits="userSpaceOnUse"> <stop stop-color="#E2AC6B"/> <stop offset="1" stop-color="#E0D2B4"/> </linearGradient> <clipPath id="clip0_26_530"> <rect width="14" height="14" fill="white"/> </clipPath> </defs> </svg>