<svg xmlns="http://www.w3.org/2000/svg" width="14" height="14" viewBox="0 0 14 14" fill="none"> <g clip-path="url(#clip0_26_636)"> <path d="M3.05013 6.51773C3.567 6.50633 4.04642 6.64756 4.4884 6.9414C4.57997 7.00204 4.66646 7.07326 4.74785 7.15506C5.25495 7.59379 5.53353 8.15461 5.58359 8.83752C5.63975 9.59247 5.39943 10.2373 4.86262 10.7721C4.41494 11.2173 3.88709 11.4577 3.27906 11.4931C2.47323 11.5448 1.79785 11.2739 1.2529 10.6805C0.775916 10.1608 0.566117 9.5414 0.623501 8.82226C0.659723 8.33714 0.828823 7.89577 1.1308 7.49815C1.294 7.27919 1.4922 7.10459 1.7254 6.97436C1.74372 6.965 1.76081 6.95401 1.77668 6.9414C2.12262 6.66465 2.5471 6.52343 3.05013 6.51773ZM4.74175 8.9877C4.74175 8.78255 4.70134 8.57941 4.62283 8.38987C4.54432 8.20034 4.42925 8.02812 4.28419 7.88306C4.13913 7.73799 3.96691 7.62292 3.77738 7.54442C3.58784 7.46591 3.3847 7.4255 3.17955 7.4255C2.76523 7.4255 2.36788 7.59009 2.07491 7.88306C1.78194 8.17603 1.61735 8.57338 1.61735 8.9877C1.61735 9.40202 1.78194 9.79937 2.07491 10.0923C2.36788 10.3853 2.76523 10.5499 3.17955 10.5499C3.3847 10.5499 3.58784 10.5095 3.77738 10.431C3.96691 10.3525 4.13913 10.2374 4.28419 10.0923C4.42925 9.94728 4.54432 9.77506 4.62283 9.58553C4.70134 9.39599 4.74175 9.19285 4.74175 8.9877Z" fill="url(#paint0_linear_26_636)"/> <path d="M10.5702 1.363C11.0268 1.54899 11.4574 1.78361 11.8619 2.06687C11.9392 2.11978 11.9779 2.19324 11.9779 2.28725C11.9779 2.4879 11.9779 2.739 11.9779 3.04058C11.9779 3.07761 11.9635 3.10793 11.9346 3.13154C11.7547 3.28008 11.5571 3.42294 11.3418 3.56009C11.3219 3.5727 11.3215 3.58573 11.3406 3.59916C12.2197 4.20841 13.0947 4.82397 13.9656 5.44584C14.0026 5.47229 14.0098 5.50526 13.987 5.54473C13.8026 5.86096 13.6276 6.16619 13.462 6.46044C13.4376 6.50399 13.3969 6.50663 13.3399 6.46838C12.9952 6.25308 12.6492 6.02416 12.3021 5.7816C11.0795 4.92653 9.87199 4.06759 8.67953 3.20479C8.66284 3.19299 8.64738 3.17976 8.63314 3.16511C8.35232 2.879 8.0072 2.7095 7.59777 2.65659C7.14155 2.59473 6.7193 2.69647 6.33104 2.96183C5.04335 3.85963 3.73979 4.75885 2.42036 5.6595C2.04431 5.9159 1.65768 6.17026 1.26046 6.42259C1.0936 6.53573 0.943219 6.65905 0.809323 6.79254C0.785311 6.81248 0.765572 6.80882 0.750107 6.78155C0.502255 6.34811 0.256031 5.93035 0.0114352 5.52825C-0.00809993 5.49691 -0.00260566 5.47066 0.027918 5.4495C0.968045 4.79792 1.86401 4.16669 2.71583 3.55581C2.73251 3.54401 2.73231 3.53241 2.71522 3.52102C2.53207 3.40137 2.33449 3.27988 2.12245 3.15657C2.06954 3.12564 2.04288 3.07944 2.04248 3.01799C2.04044 2.70787 2.04146 2.43092 2.04553 2.18714C2.04594 2.16679 2.05428 2.15051 2.07056 2.1383C2.49626 1.82777 2.99441 1.56181 3.56499 1.34041C4.48518 0.982674 5.45807 0.775317 6.48366 0.71834C7.93984 0.632467 9.30201 0.847353 10.5702 1.363Z" fill="url(#paint1_linear_26_636)"/> <path d="M7.36265 5.58516C7.9874 5.58516 8.49386 5.07871 8.49386 4.45396C8.49386 3.82921 7.9874 3.32275 7.36265 3.32275C6.7379 3.32275 6.23145 3.82921 6.23145 4.45396C6.23145 5.07871 6.7379 5.58516 7.36265 5.58516Z" fill="url(#paint2_linear_26_636)"/> <path d="M5.52251 4.35056C5.54408 4.3355 5.55425 4.341 5.55303 4.36704C5.53024 4.90507 5.71216 5.36883 6.09879 5.75831C6.37921 6.04116 6.72636 6.20782 7.14026 6.25829C7.68765 6.32951 8.16463 6.18076 8.57121 5.81203C8.96761 5.45185 9.17232 4.99542 9.18534 4.44274C9.18575 4.42728 9.19226 4.42402 9.20488 4.43297C9.89634 4.91158 10.5805 5.39732 11.2573 5.89017C11.2919 5.915 11.2884 5.93189 11.2469 5.94084C11.0096 5.99375 10.7842 6.08308 10.5705 6.20884C10.2404 6.42006 9.98099 6.66425 9.79215 6.9414C9.73517 7.02484 9.6552 7.08385 9.55224 7.11844C9.53392 7.12739 9.51683 7.13818 9.50096 7.1508C8.42042 8.01034 7.33134 8.87721 6.23371 9.75141C6.20888 9.77094 6.19952 9.76525 6.20563 9.73431C6.25854 9.49135 6.28519 9.24329 6.2856 8.99015C6.28112 8.51439 6.17816 8.06793 5.9767 7.65077C5.78623 7.24664 5.49626 6.88036 5.10678 6.55192C4.61555 6.13802 4.04232 5.90279 3.38708 5.84622C3.36754 5.84459 3.36591 5.83828 3.38219 5.82729C4.07813 5.35234 4.79157 4.8601 5.52251 4.35056Z" fill="url(#paint3_linear_26_636)"/> <path d="M11.7605 9.97748C12.7015 9.97748 13.4643 9.21465 13.4643 8.27365C13.4643 7.33265 12.7015 6.56982 11.7605 6.56982C10.8195 6.56982 10.0566 7.33265 10.0566 8.27365C10.0566 9.21465 10.8195 9.97748 11.7605 9.97748Z" fill="url(#paint4_linear_26_636)"/> <path d="M3.1762 9.8668C3.66238 9.8668 4.0565 9.47268 4.0565 8.9865C4.0565 8.50033 3.66238 8.1062 3.1762 8.1062C2.69002 8.1062 2.2959 8.50033 2.2959 8.9865C2.2959 9.47268 2.69002 9.8668 3.1762 9.8668Z" fill="url(#paint5_linear_26_636)"/> <path d="M9.32381 8.18793C9.35393 8.10328 9.36858 8.10572 9.36776 8.19526C9.35555 8.7634 9.51448 9.26623 9.84454 9.70373C10.1441 10.1005 10.5358 10.3803 11.0197 10.5431C11.0531 10.5545 11.061 10.5755 11.0435 10.606C10.5966 11.3947 10.1404 12.1849 9.67483 12.9765C9.66384 12.9948 9.64756 13.0039 9.62599 13.0039C7.91748 13.0039 6.20857 13.0039 4.49925 13.0039C4.45936 13.0039 4.42884 12.9871 4.40768 12.9533C4.23552 12.6757 4.07497 12.4016 3.92601 12.131C3.91787 12.1163 3.92174 12.1061 3.93761 12.1004C4.57495 11.8656 5.14736 11.5286 5.65487 11.0895C5.67034 11.0761 5.68601 11.0631 5.70188 11.0504C6.87724 10.1066 8.06237 9.16428 9.25727 8.22334C9.2943 8.19403 9.31648 8.18223 9.32381 8.18793Z" fill="url(#paint6_linear_26_636)"/> </g> <defs> <linearGradient id="paint0_linear_26_636" x1="-0.56094" y1="9.49257" x2="6.8359" y2="9.49257" gradientUnits="userSpaceOnUse"> <stop stop-color="#E2AC6B"/> <stop offset="1" stop-color="#E0D2B4"/> </linearGradient> <linearGradient id="paint1_linear_26_636" x1="-3.30556" y1="4.34613" x2="17.5" y2="4.34613" gradientUnits="userSpaceOnUse"> <stop stop-color="#E2AC6B"/> <stop offset="1" stop-color="#E0D2B4"/> </linearGradient> <linearGradient id="paint2_linear_26_636" x1="5.69727" y1="4.67392" x2="9.05946" y2="4.67392" gradientUnits="userSpaceOnUse"> <stop stop-color="#E2AC6B"/> <stop offset="1" stop-color="#E0D2B4"/> </linearGradient> <linearGradient id="paint3_linear_26_636" x1="1.50351" y1="7.57951" x2="13.2583" y2="7.57951" gradientUnits="userSpaceOnUse"> <stop stop-color="#E2AC6B"/> <stop offset="1" stop-color="#E0D2B4"/> </linearGradient> <linearGradient id="paint4_linear_26_636" x1="9.25206" y1="8.60495" x2="14.3162" y2="8.60495" gradientUnits="userSpaceOnUse"> <stop stop-color="#E2AC6B"/> <stop offset="1" stop-color="#E0D2B4"/> </linearGradient> <linearGradient id="paint5_linear_26_636" x1="1.8802" y1="9.15767" x2="4.49665" y2="9.15767" gradientUnits="userSpaceOnUse"> <stop stop-color="#E2AC6B"/> <stop offset="1" stop-color="#E0D2B4"/> </linearGradient> <linearGradient id="paint6_linear_26_636" x1="2.23825" y1="11.0393" x2="12.8352" y2="11.0393" gradientUnits="userSpaceOnUse"> <stop stop-color="#E2AC6B"/> <stop offset="1" stop-color="#E0D2B4"/> </linearGradient> <clipPath id="clip0_26_636"> <rect width="14" height="14" fill="white"/> </clipPath> </defs> </svg>