<svg xmlns="http://www.w3.org/2000/svg" width="14" height="14" viewBox="0 0 14 14" fill="none"> <g clip-path="url(#clip0_26_524)"> <path d="M8.25233 0.000936918C8.30156 -0.00482874 8.31864 0.0160164 8.30356 0.0634722C8.12039 0.635603 7.9432 1.20618 7.77201 1.77521C7.7587 1.81867 7.77157 1.85194 7.81059 1.875C8.49538 2.27904 9.15865 2.68019 9.80041 3.07847C9.83988 3.10286 9.8574 3.1379 9.85297 3.18358C9.83079 3.42352 9.81216 3.65903 9.79709 3.8901C9.79265 3.95751 9.81682 4.0125 9.8696 4.05508C10.9584 4.92658 12.0506 5.79143 13.146 6.64963C13.1607 6.66072 13.1638 6.67446 13.1554 6.69087C12.903 7.16854 12.6602 7.64398 12.4269 8.11721C12.3817 8.20857 12.3098 8.268 12.2113 8.2955C11.833 8.39041 11.4392 8.44186 11.0298 8.44984C10.6763 8.4565 10.3728 8.37201 10.1191 8.19638C9.93014 8.058 9.82414 7.89412 9.80108 7.70474C9.79709 7.68301 9.784 7.67237 9.76183 7.67281C9.06463 7.68079 8.36609 7.68878 7.66623 7.69676C7.64406 7.6972 7.6323 7.70851 7.63097 7.73069C7.61545 7.96043 7.61279 8.19327 7.62299 8.42922C7.62388 8.4514 7.63474 8.46625 7.65559 8.47379C8.61535 8.81973 9.41722 9.37856 10.0612 10.1503C10.8821 11.1349 11.3381 12.2645 11.429 13.5391C11.4343 13.6052 11.411 13.6179 11.3591 13.5771C10.4229 12.8457 9.4904 12.1301 8.56168 11.4302C8.54394 11.4169 8.53108 11.4207 8.5231 11.4416C8.44371 11.6505 8.37519 11.88 8.31753 12.1301C8.30644 12.1785 8.27894 12.1913 8.23504 12.1687C7.35644 11.7159 6.4856 11.2604 5.62253 10.8022C5.59281 10.7867 5.57751 10.7956 5.57662 10.8288C5.56243 11.224 5.54491 11.6216 5.52407 12.0217C5.52096 12.0776 5.49346 12.0955 5.44157 12.0756C4.68272 11.7851 3.92321 11.4968 3.16303 11.2107C3.09295 11.1845 3.05548 11.1342 3.0506 11.0597C3.01734 10.6064 2.95081 10.1398 2.85102 9.65997C2.76586 9.24972 2.69113 8.83659 2.62682 8.42057C2.51151 7.73002 2.5308 7.04258 2.6847 6.35824C2.87497 5.5373 3.17988 4.77224 3.59945 4.06307C4.01812 3.34413 4.59336 2.67753 5.32515 2.06327C5.40986 1.99231 5.49169 1.90782 5.57064 1.8098C6.00173 1.22037 6.50889 0.751803 7.0921 0.404089C7.46421 0.182333 7.85095 0.0479492 8.25233 0.000936918Z" fill="url(#paint0_linear_26_524)"/> <path d="M0.964122 11.1993C1.02666 11.2109 1.10671 11.2355 1.20428 11.2732C2.81024 11.8928 4.46521 12.5164 6.16918 13.1439C6.20688 13.1581 6.22706 13.1453 6.22972 13.1053C6.25367 12.7581 6.26919 12.3995 6.27629 12.0296C6.27673 12.0074 6.28693 12.0014 6.30689 12.0116C7.08481 12.4139 7.88291 12.8326 8.70119 13.2677C8.73756 13.2872 8.76129 13.277 8.77238 13.2371C8.82294 13.057 8.87039 12.8745 8.91474 12.6895C8.9214 12.662 8.93581 12.6567 8.95799 12.6736C9.40017 13.0142 9.81907 13.336 10.2147 13.6389C10.385 13.7693 10.5262 13.8884 10.6385 13.9961C10.6451 14.0028 10.6436 14.0061 10.6338 14.0061C8.11021 13.9356 5.59772 13.8686 3.09631 13.8052C3.06304 13.8043 3.05972 13.7939 3.08633 13.7739C3.1533 13.7243 3.22182 13.6613 3.2919 13.585C3.31895 13.5548 3.31784 13.5258 3.28857 13.4978C2.51242 12.7616 1.73339 12.005 0.951482 11.2279C0.930637 11.2075 0.93485 11.198 0.964122 11.1993Z" fill="url(#paint1_linear_26_524)"/> </g> <defs> <linearGradient id="paint0_linear_26_524" x1="0.0482464" y1="8.12248" x2="15.8118" y2="8.12248" gradientUnits="userSpaceOnUse"> <stop stop-color="#E2AC6B"/> <stop offset="1" stop-color="#E0D2B4"/> </linearGradient> <linearGradient id="paint1_linear_26_524" x1="-1.35275" y1="12.8756" x2="13.0685" y2="12.8756" gradientUnits="userSpaceOnUse"> <stop stop-color="#E2AC6B"/> <stop offset="1" stop-color="#E0D2B4"/> </linearGradient> <clipPath id="clip0_26_524"> <rect width="14" height="14" fill="white"/> </clipPath> </defs> </svg>