<svg xmlns="http://www.w3.org/2000/svg" width="14" height="14" viewBox="0 0 14 14" fill="none"> <path d="M7.37377 0.851171C8.64477 0.918875 9.81173 1.30433 10.8746 2.00754C11.2676 2.26797 11.6283 2.56661 11.9569 2.90347C12.243 3.19048 12.5026 3.49681 12.7357 3.82245C13.3101 4.65691 13.6931 5.57714 13.8845 6.58315C13.9797 7.08407 14.016 7.60847 13.9936 8.15633C13.93 9.33637 13.5965 10.4358 12.993 11.4547C12.7546 11.8568 12.469 12.241 12.1363 12.6073C11.9635 12.7926 11.7452 12.9097 11.4815 12.9587C11.4611 12.9633 11.4406 12.9664 11.4198 12.9681C10.9637 13.0104 10.599 12.8669 10.3257 12.5375C10.3124 12.5218 10.2985 12.5066 10.284 12.4921C9.80176 12.0235 9.2458 11.6647 8.61611 11.4155C8.11187 11.2161 7.56795 11.1162 6.98437 11.1158C5.95968 11.1178 5.04194 11.4254 4.23115 12.0385C4.01267 12.2038 3.79212 12.4038 3.56948 12.6385C3.38506 12.8275 3.15267 12.9377 2.8723 12.9693C2.43991 13.0146 2.07772 12.868 1.78572 12.5295C1.30473 11.9774 0.918029 11.3828 0.625615 10.7457C0.166642 9.74882 -0.0397921 8.6884 0.0063129 7.56444C0.0341421 6.88698 0.152312 6.24193 0.360823 5.62927C0.682728 4.64653 1.19923 3.78196 1.91033 3.03555C2.81124 2.09019 3.87955 1.44514 5.11525 1.10039C5.8658 0.891046 6.61865 0.807974 7.37377 0.851171ZM7.26848 2.81001C7.13182 2.69994 6.97876 2.67917 6.8093 2.74771C6.67347 2.7988 6.59165 2.88312 6.56382 3.00066C6.48864 3.31758 6.48095 3.70304 6.54077 4.15703C6.54326 4.17779 6.54741 4.19815 6.55323 4.21808C6.60805 4.40084 6.72581 4.50904 6.90649 4.54269C7.08593 4.57633 7.23525 4.51797 7.35446 4.36761C7.41427 4.29119 7.44729 4.20438 7.45352 4.10718C7.4718 3.8725 7.47637 3.58674 7.46723 3.24988C7.46183 3.05591 7.39558 2.90928 7.26848 2.81001ZM4.66838 5.51158C4.75562 5.42403 4.80452 5.3054 4.8043 5.18181C4.80408 5.05821 4.75478 4.93975 4.66723 4.85251L4.01936 4.2069C3.93181 4.11966 3.81319 4.07076 3.68959 4.07098C3.56599 4.07119 3.44754 4.1205 3.36029 4.20805C3.27305 4.2956 3.22415 4.41423 3.22437 4.53783C3.22459 4.66143 3.27389 4.77988 3.36144 4.86712L4.00931 5.51273C4.09686 5.59998 4.21548 5.64887 4.33908 5.64865C4.46268 5.64844 4.58113 5.59913 4.66838 5.51158V5.51158ZM10.6231 4.20567C10.5369 4.1189 10.4198 4.06992 10.2975 4.06949C10.1752 4.06907 10.0578 4.11723 9.97104 4.20339L9.32292 4.84699C9.27996 4.88965 9.24582 4.94036 9.22246 4.99621C9.19909 5.05207 9.18696 5.11198 9.18675 5.17253C9.18653 5.23308 9.19825 5.29307 9.22123 5.34909C9.2442 5.40511 9.27799 5.45605 9.32065 5.49901V5.49901C9.40681 5.58578 9.52391 5.63476 9.64619 5.63519C9.76846 5.63561 9.8859 5.58745 9.97267 5.50129L10.6208 4.85769C10.6637 4.81503 10.6979 4.76432 10.7212 4.70847C10.7446 4.65261 10.7567 4.5927 10.757 4.53215C10.7572 4.47161 10.7454 4.41161 10.7225 4.35559C10.6995 4.29957 10.6657 4.24863 10.6231 4.20567V4.20567ZM8.96626 5.80061C8.86201 5.72667 8.74654 5.72792 8.61985 5.80435C7.93575 6.21763 7.25685 6.64462 6.58313 7.08532C6.46808 7.14887 6.36943 7.22675 6.28719 7.31896C6.09778 7.53162 6.02904 7.76921 6.08096 8.03172C6.10131 8.15757 6.14929 8.27574 6.22488 8.38623C6.3794 8.61135 6.58583 8.73721 6.84419 8.76379C7.00493 8.78664 7.14906 8.76462 7.27658 8.69775C7.4772 8.57605 7.64583 8.4072 7.78249 8.19122C8.20574 7.52207 8.62504 6.85106 9.04041 6.17817C9.13511 6.01743 9.11039 5.89157 8.96626 5.80061ZM3.70592 7.84616C3.70635 7.72305 3.65786 7.60482 3.57112 7.51747C3.48438 7.43012 3.36649 7.3808 3.24338 7.38037L2.32752 7.37718C2.20442 7.37675 2.08618 7.42524 1.99883 7.51198C1.91148 7.59872 1.86217 7.71661 1.86173 7.83972C1.8613 7.96282 1.90979 8.08105 1.99654 8.1684C2.08328 8.25575 2.20117 8.30507 2.32427 8.3055L3.24014 8.3087C3.36325 8.30913 3.48148 8.26063 3.56883 8.17389C3.65618 8.08715 3.70549 7.96926 3.70592 7.84616V7.84616ZM12.1226 7.84294C12.1226 7.72 12.0738 7.60209 11.9868 7.51516C11.8999 7.42823 11.782 7.37939 11.659 7.37939H10.7407C10.6177 7.37939 10.4998 7.42823 10.4129 7.51516C10.326 7.60209 10.2771 7.72 10.2771 7.84294C10.2771 7.96588 10.326 8.08378 10.4129 8.17071C10.4998 8.25764 10.6177 8.30648 10.7407 8.30648H11.659C11.782 8.30648 11.8999 8.25764 11.9868 8.17071C12.0738 8.08378 12.1226 7.96588 12.1226 7.84294Z" fill="url(#paint0_linear_26_603)"/> <defs> <linearGradient id="paint0_linear_26_603" x1="-3.30556" y1="8.08872" x2="17.5" y2="8.08872" gradientUnits="userSpaceOnUse"> <stop stop-color="#E2AC6B"/> <stop offset="1" stop-color="#E0D2B4"/> </linearGradient> </defs> </svg>